Coordinates
version=1
nRows=29
nColumns=24
inDegrees=yes

Units are S.I. units (second, meters, Newtons, ...)
Angles are in degrees.

endheader
time	pelvis_tilt	pelvis_list	pelvis_rotation	pelvis_tx	pelvis_ty	pelvis_tz	hip_flexion_r	hip_adduction_r	hip_rotation_r	knee_angle_r	ankle_angle_r	subtalar_angle_r	mtp_angle_r	hip_flexion_l	hip_adduction_l	hip_rotation_l	knee_angle_l	ankle_angle_l	subtalar_angle_l	mtp_angle_l	lumbar_extension	lumbar_bending	lumbar_rotation
      0.55800000	     -0.19965527	      2.84206367	      2.51616809	     -0.78985756	      0.99310170	      0.23244780	     22.69670880	     -2.07786562	     -3.64897771	      0.99515196	      4.56986931	    -12.82636764	      0.70503185	    -18.89530609	      4.51353654	      6.65210421	     -5.49172615	     10.19581703	    -11.72419090	      0.79315741	     -1.78536223	     -4.66625981	     -5.34712064
      0.56216667	     -0.24946638	      2.76697802	      2.55857946	     -0.78360072	      0.99245845	      0.23282781	     22.79611368	     -1.97929837	     -3.45386845	      0.52130166	      4.56498265	    -12.99910959	      7.23964738	    -18.90244658	      4.38630470	      6.53247910	     -6.09654074	     10.15954667	    -11.55204826	      6.51512039	     -1.65670969	     -4.55191462	     -5.35406419
      0.56633333	     -0.22241259	      2.66535244	      2.63191421	     -0.77730296	      0.99199740	      0.23316707	     22.78294782	     -1.85736729	     -3.29188378	      0.03560071	      4.59708081	    -13.10288244	      7.23783383	    -19.01131237	      4.22565143	      6.58572943	     -6.66787545	     10.07797887	    -11.54511950	      6.52587422	     -1.63938019	     -4.41043948	     -5.38591725
      0.57050000	     -0.26121623	      2.56610195	      2.70568301	     -0.77094919	      0.99145582	      0.23356940	     22.80743988	     -1.72885187	     -2.97062627	     -0.42948904	      4.48656658	    -13.50610971	      7.23390883	    -18.95842750	      4.05405006	      6.36880586	     -7.42644634	     10.19310210	    -10.99097955	      6.64106588	     -1.51105833	     -4.27151031	     -5.58904810
      0.57466667	     -0.24243306	      2.44406225	      2.77305395	     -0.76454980	      0.99102844	      0.23396701	     22.76753816	     -1.57144315	     -2.70510302	     -0.92777352	      4.36239377	    -13.83376878	      7.24552566	    -18.97659564	      3.86286283	      6.21802708	     -8.16401193	     10.19891400	    -10.63459041	      6.78808816	     -1.45916656	     -4.10099466	     -5.67007827
      0.57883333	     -0.23732363	      2.31449119	      2.84455822	     -0.75810318	      0.99061770	      0.23436770	     22.73705598	     -1.40437200	     -2.45567146	     -1.44958977	      4.16358503	    -14.18713149	      7.27163461	    -18.95902700	      3.66301510	      6.06137716	     -8.93978349	     10.17842274	    -10.28253146	      6.97471434	     -1.38105058	     -3.92345929	     -5.76702511
      0.58300000	     -0.22673170	      2.16941733	      2.90886095	     -0.75160855	      0.99023937	      0.23479540	     22.69445978	     -1.21384283	     -2.20335762	     -1.98725385	      3.92401177	    -14.55311848	      7.30941001	    -18.92664201	      3.44799816	      5.88556476	     -9.75719085	     10.11600293	     -9.93166003	      7.18844420	     -1.30558843	     -3.72701200	     -5.85203877
      0.58716667	     -0.20245481	      2.01903454	      2.97224859	     -0.74508182	      0.98990777	      0.23523759	     22.62956916	     -1.01353384	     -1.95840353	     -2.53066528	      3.61222081	    -14.95220252	      7.36349305	    -18.88085317	      3.22196663	      5.66002575	    -10.62273299	     10.03221801	     -9.52739297	      7.46132115	     -1.24347724	     -3.52662051	     -5.93006503
      0.59133333	     -0.18532766	      1.86218814	      3.02106938	     -0.73852534	      0.98958236	      0.23570231	     22.59467216	     -0.80260239	     -1.78113435	     -3.13411852	      3.31068089	    -15.23152970	      8.37489578	    -18.79219449	      2.98833430	      5.36301372	    -11.54956197	      9.88384518	     -9.12617901	     12.17543379	     -1.16072968	     -3.30956065	     -5.91636668
      0.59550000	     -0.18290681	      1.70256293	      3.09339898	     -0.73193228	      0.98930992	      0.23616060	     22.53093407	     -0.59005051	     -1.54114339	     -3.66628077	      2.88021905	    -15.71056948	      8.37375919	    -18.67437643	      2.75136729	      5.16592491	    -12.49778380	      9.68478189	     -8.80582178	     12.24373909	     -1.05660001	     -3.10377544	     -6.07058561
      0.59966667	     -0.15857351	      1.52946960	      3.14292748	     -0.72533014	      0.98906712	      0.23666435	     22.46417082	     -0.35470770	     -1.34210482	     -4.24543134	      2.45849551	    -16.09704199	      8.38734998	    -18.53581995	      2.49488810	      4.85488190	    -13.53119389	      9.49729314	     -8.34742253	     12.38372532	     -0.97848212	     -2.87452006	     -6.10817729
      0.60383333	     -0.15293599	      1.35569926	      3.18966486	     -0.71870823	      0.98883911	      0.23717593	     22.41800904	     -0.11885771	     -1.16443114	     -4.83506854	      2.02522603	    -16.44751214	      8.40929424	    -18.35474305	      2.23878885	      4.55384115	    -14.59968212	      9.23904683	     -7.93971419	     12.57212815	     -0.87087860	     -2.64765219	     -6.14979692
      0.60800000	     -0.10438771	      1.16850450	      3.21515551	     -0.71209531	      0.98868707	      0.23773463	     22.33940610	      0.14109293	     -1.00404909	     -5.45380964	      1.57317776	    -16.80788655	      8.96793209	    -18.18773824	      1.96155856	      4.18638323	    -15.71217480	      8.91428558	     -7.52092213	     16.77987520	     -0.82042802	     -2.39596564	     -6.13839613
      0.61216667	     -0.11409019	      0.99196084	      3.25940528	     -0.70547932	      0.98849871	      0.23827261	     22.32232372	      0.37744381	     -0.88856279	     -6.07906214	      1.14256730	    -17.06008291	      8.96365639	    -17.91377128	      1.69429513	      3.85522218	    -16.91207657	      8.55318001	     -7.11801042	     16.84238618	     -0.68860463	     -2.17092624	     -6.19900527
      0.61633333	     -0.09707460	      0.80401941	      3.28201531	     -0.69888199	      0.98836755	      0.23886202	     22.28856661	      0.63512214	     -0.77256528	     -6.72936948	      0.72049261	    -17.32196172	      8.96311270	    -17.63599623	      1.40792236	      3.46794028	    -18.16081103	      8.16875241	     -6.65159590	     16.97004871	     -0.59883673	     -1.92724431	     -6.20614000
      0.62050000	     -0.05887235	      0.61531091	      3.29200914	     -0.69232924	      0.98827628	      0.23948533	     22.25381235	      0.89801801	     -0.67911004	     -7.42387385	      0.32102429	    -17.57644171	      8.96468261	    -17.34660144	      1.11496508	      3.06120677	    -19.46539201	      7.76329130	     -6.16427220	     17.19119837	     -0.54374877	     -1.68057672	     -6.20215136
      0.62466667	     -0.00012870	      0.41371268	      3.30557028	     -0.68577054	      0.98826225	      0.24012921	     22.18005714	      1.17474004	     -0.58894595	     -8.09137942	     -0.02376811	    -17.81051878	      8.96825043	    -17.04268490	      0.79143585	      2.62441946	    -20.81649593	      7.24386301	     -5.65437149	     17.77632706	     -0.50813932	     -1.41954569	     -6.19308133
      0.62883333	     -0.00501105	      0.22907228	      3.29454171	     -0.67926023	      0.98817746	      0.24081069	     22.19358321	      1.43744885	     -0.48382298	     -8.78799026	     -0.43655964	    -18.03822808	      8.93332500	    -16.63899223	      0.49709729	      2.21331909	    -22.21140874	      6.62097573	     -5.36952817	     22.69543356	     -0.39313023	     -1.18752242	     -6.16667263
      0.63300000	     -0.00039223	      0.04781071	      3.29686753	     -0.67278765	      0.98813344	      0.24145338	     22.22195340	      1.67871168	     -0.50408762	     -9.54747447	     -0.64760969	    -17.97648481	      8.92902762	    -16.19964443	      0.19745474	      1.82414397	    -23.68245387	      6.00904154	     -5.00391684	     22.74791576	     -0.29138229	     -0.95200443	     -6.12930907
      0.63716667	      0.01970830	     -0.13606768	      3.28082681	     -0.66637354	      0.98811910	      0.24215167	     22.23766484	      1.93432487	     -0.48294495	    -10.31219425	     -0.86106969	    -18.02223057	      8.91783827	    -15.74685371	     -0.11457050	      1.40805913	    -25.19566316	      5.34778056	     -4.62200279	     22.84414879	     -0.22162002	     -0.71767731	     -6.08775819
      0.64133333	      0.03883182	     -0.31789283	      3.26112297	     -0.66002301	      0.98812310	      0.24286979	     22.26687142	      2.18780058	     -0.48127783	    -11.10241312	     -1.04448707	    -18.07203183	      8.89637321	    -15.25489504	     -0.43295469	      1.00025184	    -26.76081451	      4.68441854	     -4.23713029	     23.00305715	     -0.16542057	     -0.48335651	     -6.03868377
      0.64550000	      0.06953903	     -0.50184106	      3.23672635	     -0.65369105	      0.98817876	      0.24359902	     22.25848666	      2.44416657	     -0.46611410	    -11.84281640	     -1.16541040	    -18.04968381	      8.87386204	    -14.75518265	     -0.75760908	      0.61468062	    -28.34335564	      3.91121485	     -3.95917138	     23.14491773	     -0.10736761	     -0.25200327	     -5.98745113
      0.64966667	      0.08020277	     -0.67367177	      3.20666585	     -0.64746609	      0.98820314	      0.24434577	     22.30483971	      2.68709039	     -0.48427231	    -12.64925396	     -1.25296211	    -18.04498184	      8.83487364	    -14.18960608	     -1.07356153	      0.24822296	    -29.99117839	      3.17878044	     -3.65988575	     23.35024922	     -0.05740141	     -0.03033181	     -5.92387339
      0.65383333	      0.11053493	     -0.85106602	      3.17663782	     -0.64124926	      0.98829745	      0.24509523	     22.28940718	      2.93747762	     -0.48372124	    -13.37449440	     -1.28528514	    -17.99118384	      8.79820121	    -13.63033527	     -1.40388191	     -0.10698145	    -31.64127583	      2.34028253	     -3.45774513	     23.51733409	     -0.01076381	      0.19467685	     -5.86192234
      0.65800000	      0.12497379	     -1.01617369	      3.14302818	     -0.63513521	      0.98836657	      0.24585257	     22.31898744	      3.17214490	     -0.51749095	    -14.15605236	     -1.28744121	    -17.94787980	      8.73627489	    -13.01888575	     -1.72070742	     -0.42149434	    -33.33660916	      1.54774142	     -3.26947168	     23.74501289	      0.02391172	      0.40279006	     -5.78978285
      0.66216667	      0.14844639	     -1.18686999	      3.11170458	     -0.62903824	      0.98850403	      0.24661375	     22.28864290	      3.41659995	     -0.51915889	    -14.83429549	     -1.24939045	    -17.87488149	      8.68995764	    -12.40033861	     -2.04489453	     -0.70505891	    -35.03210880	      0.66877271	     -3.20672249	     23.88354378	      0.05953827	      0.60227123	     -5.72760072
      0.66633333	      0.16621730	     -1.33695079	      3.07649700	     -0.62304493	      0.98862523	      0.24735143	     22.28643508	      3.63458147	     -0.55833298	    -15.55656703	     -1.18680660	    -17.80763771	      8.62729916	    -11.74818989	     -2.34586506	     -0.96185089	    -36.75508272	     -0.12386771	     -3.13764482	     24.02690776	      0.08267842	      0.81109015	     -5.65692761
      0.67050000	      0.18324824	     -1.48501394	      3.04700509	     -0.61709479	      0.98878793	      0.24809562	     22.25473085	      3.85233539	     -0.58670219	    -16.21757198	     -1.08741422	    -17.73403710	      8.55225647	    -11.07850959	     -2.64325456	     -1.17666358	    -38.47444403	     -0.93360988	     -3.16203823	     24.14685748	      0.10406788	      0.99429849	     -5.58868511
      0.67466667	      0.21819530	     -1.63986213	      3.02134797	     -0.61118662	      0.98900651	      0.24883670	     22.17003107	      4.08025878	     -0.60427784	    -16.80851609	     -0.96655107	    -17.66906179	      8.49158005	    -10.41200145	     -2.94999334	     -1.36958220	    -40.19320136	     -1.73433731	     -3.26390387	     24.20196476	      0.10677669	      1.17335149	     -5.52257165
